<svg xmlns="http://www.w3.org/2000/svg" viewBox="0 0 28 28"><defs><style>.cls-1{fill:#666;}.cls-2{fill:#fff;}</style></defs><title>icon_show</title><g id="Layer_11" data-name="Layer 11"><path class="cls-1" d="M2,14s5,6,12,6,12-6,12-6S21,8,14,8,2,14,2,14Z"/><circle class="cls-1" cx="14" cy="13.97" r="4"/><path class="cls-2" d="M14,10.47A3.5,3.5,0,1,1,10.5,14a3.5,3.5,0,0,1,3.5-3.5m0-1A4.5,4.5,0,1,0,18.5,14,4.51,4.51,0,0,0,14,9.47Z"/><ellipse class="cls-2" cx="15.17" cy="12.14" rx="1.53" ry="2.63" transform="translate(-3.47 17.61) rotate(-55)"/></g></svg>