<?xml version="1.0" encoding="UTF-8"?>
<svg width="24px" height="24px" viewBox="0 0 24 24" version="1.1" xmlns="http://www.w3.org/2000/svg" xmlns:xlink="http://www.w3.org/1999/xlink">
    <!-- Generator: Sketch 51.3 (57544) - http://www.bohemiancoding.com/sketch -->
    <title>security</title>
    <desc>Created with Sketch.</desc>
    <defs></defs>
    <g id="Designs-14th-sep" stroke="none" stroke-width="1" fill="none" fill-rule="evenodd">
        <g id="2.5_Acknowledgement" transform="translate(-455.000000, -320.000000)">
            <g id="message" transform="translate(435.000000, 300.000000)">
                <g id="security" transform="translate(21.000000, 21.000000)">
                    <path d="M10,15.5 L10,11.5 C10,10.9477153 10.4477153,10.5 11,10.5 L11,10.5 C11.5522847,10.5 12,10.9477153 12,11.5 L12,15.5 C12,16.0522847 11.5522847,16.5 11,16.5 L11,16.5 C10.4477153,16.5 10,16.0522847 10,15.5 Z M10,7.5 L10,7.5 C10,6.94771525 10.4477153,6.5 11,6.5 L11,6.5 C11.5522847,6.5 12,6.94771525 12,7.5 L12,7.5 C12,8.05228475 11.5522847,8.5 11,8.5 L11,8.5 C10.4477153,8.5 10,8.05228475 10,7.5 Z" id="exclaimation" fill="#FFFFFF" transform="translate(11.000000, 11.750000) scale(1, -1) rotate(180.000000) translate(-11.000000, -11.750000) "></path>
                    <circle id="Oval" stroke="#FFFFFF" fill-rule="nonzero" cx="11" cy="11" r="11"></circle>
                </g>
            </g>
        </g>
    </g>
</svg>