<?xml version="1.0" encoding="UTF-8"?>
<svg width="22px" height="19px" viewBox="0 0 22 19" version="1.1" xmlns="http://www.w3.org/2000/svg" xmlns:xlink="http://www.w3.org/1999/xlink">
    <!-- Generator: sketchtool 51.2 (57519) - http://www.bohemiancoding.com/sketch -->
    <title>ED6E40EE-6C23-49B4-B3FE-01B53068F4B5</title>
    <desc>Created with sketchtool.</desc>
    <defs></defs>
    <g id="Designs-5th-sep" stroke="none" stroke-width="1" fill="none" fill-rule="evenodd">
        <g id="2.2_Login" transform="translate(-928.000000, -29.000000)">
            <g id="header">
                <g id="help-box" transform="translate(906.000000, 14.000000)">
                    <g id="question" transform="translate(22.000000, 15.000000)">
                        <g id="question-box" fill="#056DAE">
                            <rect id="Rectangle-10" x="0" y="0" width="22" height="15" rx="1"></rect>
                            <polygon id="Path-2" points="8.02532959 14.9978638 8.02532959 18.958252 8.97358472 18.958252 14 14.9978638"></polygon>
                        </g>
                        <path d="M7,5.51844467 C7.04162331,4.02891326 8.49011446,3 11.0457856,3 C13.4266389,3 15,3.95114656 15,5.333001 C15,6.23030907 14.3922997,6.85842473 13.2185224,7.35493519 C12.1113424,7.81555334 11.8033299,8.10867398 11.8033299,8.68295115 L11.8033299,9 L9.59729448,9 L9.58064516,8.67098704 C9.47242456,7.71385842 9.93028096,7.17547358 11.0790843,6.69092722 C12.1529657,6.23030907 12.4776275,5.94317049 12.4776275,5.38683948 C12.4776275,4.83050847 11.8449532,4.43569292 10.8959417,4.43569292 C9.93860562,4.43569292 9.30593132,4.86041874 9.25598335,5.51844467 L7,5.51844467 Z M11.5041322,12 C10.5785124,12 10,11.6187683 10,11.0029326 C10,10.3812317 10.5785124,10 11.5041322,10 C12.4297521,10 13,10.3812317 13,11.0029326 C13,11.6187683 12.4297521,12 11.5041322,12 Z" id="?" fill="#FFFFFF"></path>
                    </g>
                </g>
            </g>
        </g>
    </g>
</svg>