<?xml version="1.0" encoding="UTF-8"?>
<svg width="24px" height="19px" viewBox="0 0 24 19" version="1.1" xmlns="http://www.w3.org/2000/svg" xmlns:xlink="http://www.w3.org/1999/xlink">
    <!-- Generator: Sketch 51.3 (57544) - http://www.bohemiancoding.com/sketch -->
    <title>pagelevel-error</title>
    <desc>Created with Sketch.</desc>
    <defs></defs>
    <g id="Designs-14th-sep" stroke="none" stroke-width="1" fill="none" fill-rule="evenodd">
        <g id="2.1_Acknowledgement" transform="translate(-496.000000, -413.000000)">
            <g id="Group" transform="translate(433.000000, 282.000000)">
                <g id="alert" transform="translate(42.000000, 114.000000)">
                    <g id="pagelevel-error" transform="translate(22.000000, 17.000000)">
                        <path d="M10,15 L10,11 C10,10.4477153 10.4477153,10 11,10 L11,10 C11.5522847,10 12,10.4477153 12,11 L12,15 C12,15.5522847 11.5522847,16 11,16 L11,16 C10.4477153,16 10,15.5522847 10,15 Z M10,7 L10,7 C10,6.44771525 10.4477153,6 11,6 L11,6 C11.5522847,6 12,6.44771525 12,7 L12,7 C12,7.55228475 11.5522847,8 11,8 L11,8 C10.4477153,8 10,7.55228475 10,7 Z" id="exclaimation" fill="#FFFFFF" transform="translate(11.000000, 11.250000) rotate(180.000000) translate(-11.000000, -11.250000) "></path>
                        <polygon id="Triangle" stroke="#FFFFFF" fill-rule="nonzero" points="11 0 22 18 0 18"></polygon>
                    </g>
                </g>
            </g>
        </g>
    </g>
</svg>